# xmcd
#
# Track frame offsets:
#	150
#	11742
#	25505
#	37865
#	50192
#	60720
#	72062
#	83707
#	95382
#	107800
#	120605
#	130340
#	143082
#	155380
#	168495
#	179300
#	192860
#	204775
#	218392
#	231960
#
# Disc length: 3267
#
# Revision: 1
# Processed by: cddbd v1.5.1PL0 Copyright (c) Steve Scherf et al.
# Submitted via: dBpowerAMP V4.0
# Normalized: r0:TDELIM( - )
#
DISCID=050cc114
DTITLE=Various Artist - The Blues Came Down From Memphis
DYEAR=1900
DGENRE=Blues
TTITLE0=Doctor Ross - The Boogie Disease
TTITLE1=James Cotton - Cotton Crop Blues
TTITLE2=Willie Nix (The Memphis Blues Boy) - Baker Shop Boogie
TTITLE3=Rufus "Hound Dog" Thomas Jr. - Bear Cat
TTITLE4=Jimmy DeBerry - Take A Little Chance
TTITLE5=Doctor Ross - Juke Box Boogie
TTITLE6=Sammy Lewis and Willie Johnson's Combo - I Feel So Worried
TTITLE7=Little Milton - If You Love Me Baby
TTITLE8=Jimmy DeBerry - Time Has Made A Change
TTITLE9=Doctor Ross - Come Back Baby
TTITLE10=Sammy Lewis and Willie Johnson's Combo - So Long Baby, Goodbye
TTITLE11=Rufus Thomas Jr. - Tiger Man (King of the Jungle)
TTITLE12=Willie Nix - Seems Like A Million Years
TTITLE13=Doctor Ross - Chicago Breakdown
TTITLE14=Little Junior's Blue Flames - Mystery Train
TTITLE15=Jimmy DeBerry - Before Long
TTITLE16=Joe Hill Louis - We All Gotta Go Sometime
TTITLE17=Joe Hill Louis - She May Be Yours (But She Comes To Me Sometimes)
TTITLE18=Jimmy and Walter - Easy
TTITLE19=Little Junior's Blue Flames - Feelin' Good
EXTD=
EXTT0=
EXTT1=
EXTT2=
EXTT3=
EXTT4=
EXTT5=
EXTT6=
EXTT7=
EXTT8=
EXTT9=
EXTT10=
EXTT11=
EXTT12=
EXTT13=
EXTT14=
EXTT15=
EXTT16=
EXTT17=
EXTT18=
EXTT19=
PLAYORDER=
